<svg width="24" height="24" xmlns="http://www.w3.org/2000/svg">

 <title/>
 <g>
  <title>background</title>
  <rect fill="none" id="canvas_background" height="402" width="582" y="-1" x="-1"/>
 </g>
 <g>
  <title stroke="#220024">Layer 1</title>
  <path stroke="#220024" fill="#220024" id="svg_1" d="m19,5l-14,0a3,3 0 0 0 -3,3l0,8a3,3 0 0 0 3,3l14,0a3,3 0 0 0 3,-3l0,-8a3,3 0 0 0 -3,-3zm-14,2l14,0a1,1 0 0 1 1,1l0,1l-16,0l0,-1a1,1 0 0 1 1,-1zm14,10l-14,0a1,1 0 0 1 -1,-1l0,-5l16,0l0,5a1,1 0 0 1 -1,1z" class="cls-1"/>
  <path stroke="#220024" fill="#220024" id="svg_2" d="m11,13l-5,0a1,1 0 0 0 0,2l5,0a1,1 0 0 0 0,-2z" class="cls-1"/>
 </g>
</svg>