<svg width="26" height="26" xmlns="http://www.w3.org/2000/svg">

 <g>
  <title>background</title>
  <rect fill="none" id="canvas_background" height="402" width="582" y="-1" x="-1"/>
 </g>
 <g>
  <title fill="#220024" stroke="#220024">Layer 1</title>
  <path stroke="#220024" id="svg_2" fill="#220024" d="m13.44824,3.46973c-0.29394,-0.29395 -0.76855,-0.292 -1.06054,0c-0.29297,0.29297 -0.29297,0.76757 0,1.06054c2.26562,2.26465 3.51367,5.27246 3.51367,8.46973s-1.24805,6.20508 -3.51367,8.46973c-0.29297,0.29297 -0.29297,0.76757 0,1.06054c0.14648,0.14649 0.33789,0.21973 0.53027,0.21973c0.19141,0 0.38379,-0.07324 0.53027,-0.21973c2.54883,-2.54785 3.95313,-5.93164 3.95313,-9.53027s-1.4043,-6.98242 -3.95313,-9.53027z"/>
  <path stroke="#220024" id="svg_3" fill="#220024" d="m7.88477,5.71973c-0.29297,0.29297 -0.29297,0.76757 0,1.06054c1.66406,1.66309 2.58007,3.8711 2.58007,6.21973c0,2.34766 -0.91601,4.55664 -2.58007,6.21973c-0.29297,0.29297 -0.29297,0.76757 0,1.06054c0.14648,0.14649 0.33789,0.21973 0.53027,0.21973c0.19141,0 0.38379,-0.07324 0.53027,-0.21973c1.94727,-1.94629 3.01953,-4.53222 3.01953,-7.28027c0,-2.74902 -1.07226,-5.33496 -3.01953,-7.28027c-0.29394,-0.29395 -0.76855,-0.292 -1.06054,0z"/>
  <path stroke="#220024" id="svg_4" fill="#220024" d="m3.38184,7.96973c-0.29297,0.29297 -0.29297,0.76757 0,1.06054c1.0625,1.06153 1.64746,2.47168 1.64746,3.96973s-0.58496,2.9082 -1.64746,3.96973c-0.29297,0.29297 -0.29297,0.76757 0,1.06054c0.14648,0.14649 0.33789,0.21973 0.53027,0.21973c0.19141,0 0.38379,-0.07324 0.53027,-0.21973c1.34571,-1.34472 2.08692,-3.13086 2.08692,-5.03027s-0.74121,-3.68555 -2.08692,-5.03027c-0.29394,-0.29395 -0.76855,-0.292 -1.06054,0z"/>
  <path stroke="#220024" id="svg_5" fill="#220024" d="m17.95117,1.21973c-0.29394,-0.29395 -0.76855,-0.292 -1.06054,0c-0.29297,0.29297 -0.29297,0.76757 0,1.06054c2.86718,2.86621 4.44628,6.67286 4.44628,10.71973s-1.5791,7.85352 -4.44628,10.71973c-0.29297,0.29297 -0.29297,0.76757 0,1.06054c0.14648,0.14649 0.33789,0.21973 0.53027,0.21973c0.1914,0 0.38379,-0.07324 0.53027,-0.21973c3.15039,-3.14941 4.88574,-7.333 4.88574,-11.78027c0,-4.44824 -1.73535,-8.63184 -4.88574,-11.78027z"/>
 </g>
</svg>