<svg width="64" height="64" xmlns="http://www.w3.org/2000/svg">

 <g>
  <title>background</title>
  <rect fill="none" id="canvas_background" height="402" width="582" y="-1" x="-1"/>
 </g>
 <g>
  <title>Layer 1</title>
  <path fill="#220024" id="svg_2" d="m52.14741,42.67191l-6.47852,-4.52588c-0.84668,-0.59034 -1.83691,-0.90235 -2.86426,-0.90235c-1.63281,0 -3.16504,0.8003 -4.09863,2.14014l-1.50391,2.15527c-2.51953,-1.68896 -5.33203,-4.04931 -8.01416,-6.73047c-2.68164,-2.68261 -5.04199,-5.49511 -6.73046,-8.01367l2.15478,-1.5039c2.26026,-1.57471 2.81592,-4.69873 1.23779,-6.96533l-4.52539,-6.47706c-1.27441,-1.82275 -3.6831,-2.62207 -5.71435,-1.87109c-0.59424,0.22022 -1.146,0.48877 -1.6836,0.82666l-0.89453,0.62988c-0.22363,0.17383 -0.43115,0.36377 -0.63134,0.56299c-1.09131,1.09229 -1.86573,2.47315 -2.30225,4.10498c-1.86475,6.99073 2.75488,17.56006 11.49512,26.30078c7.33984,7.33985 16.1582,11.89942 23.01269,11.90039c0.00098,0 0.00098,0 0.00195,0c1.17188,0 2.27833,-0.13672 3.28711,-0.40576c1.63184,-0.43652 3.0127,-1.21094 4.10352,-2.30224c0.19922,-0.19922 0.38965,-0.40723 0.59277,-0.66993l0.62989,-0.8999c0.31054,-0.49658 0.5791,-1.04834 0.79687,-1.63965c0.76367,-2.06152 -0.00586,-4.41113 -1.87109,-5.71386z"/>
  <path fill="#220024" id="svg_3" d="m37.96088,31.69193c0.1875,0.1875 0.44141,0.29297 0.70704,0.29297s0.51953,-0.10547 0.70703,-0.29297l6.36425,-6.36377l2.46485,2.46435c0.28711,0.28662 0.7168,0.37207 1.08984,0.2168c0.37403,-0.15479 0.61719,-0.51953 0.61719,-0.92383l0,-12c0,-0.55225 -0.44727,-1 -1,-1l-12,0c-0.4043,0 -0.76953,0.24365 -0.92383,0.61719c-0.15527,0.37402 -0.06933,0.80371 0.2168,1.08984l2.46484,2.46485l-6.36426,6.36377c-0.39062,0.39062 -0.39062,1.02343 0,1.41406l5.65625,5.65674z"/>
 </g>
</svg>